<svg width="49" height="51" viewBox="0 0 49 51" fill="none" xmlns="http://www.w3.org/2000/svg">
<path d="M14.2441 4.5127H20.0215V4.86133C19.1361 4.86133 18.4443 5.14355 17.9463 5.70801C17.4593 6.21712 16.7676 7.30729 15.8711 8.97852L15.6387 9.44336C15.2402 10.196 13.7682 13.0791 11.2227 18.0928V25.2314C11.2227 26.5485 11.3444 27.4505 11.5879 27.9375C11.8424 28.4245 12.3294 28.668 13.0488 28.668V29H7.65332V28.7012C8.87077 28.7012 9.47949 27.5999 9.47949 25.3975V18.3252L3.27051 7.10254C2.41829 5.6084 1.4388 4.86133 0.332031 4.86133V4.5127H6.65723V4.86133C4.89746 4.86133 4.51562 5.69694 5.51172 7.36816L11.0234 17.6777L15.0908 9.44336C15.5003 8.58008 15.7826 7.92155 15.9375 7.46777C16.1035 7.00293 16.1865 6.57682 16.1865 6.18945C16.1865 5.30404 15.5391 4.86133 14.2441 4.86133V4.5127Z" fill="#333333"/>
<path d="M45.3047 37.0117C45.4707 38.7826 46.1956 39.668 47.4795 39.668V40H41.6025V39.668C42.2666 39.668 42.7591 39.4521 43.0801 39.0205C43.4121 38.5778 43.5449 37.9525 43.4785 37.1445L41.7021 17.0898L36.3066 34.5879L36.0244 35.4844L35.7588 36.3311C35.5153 36.9951 35.377 37.4932 35.3438 37.8252C35.1999 38.6885 35.1777 39.3249 35.2773 39.7344C34.6243 39.9225 34.1152 40.1826 33.75 40.5146L26.6445 16.9404L25.0508 36.6631C24.8848 38.6663 25.7923 39.668 27.7734 39.668V40H21.5811V39.668C23.3187 39.668 24.2705 38.6774 24.4365 36.6963L26.0635 18.6172C26.141 17.6322 25.9805 16.9294 25.582 16.5088C25.1947 16.0771 24.5417 15.8613 23.623 15.8613V15.5127H28.2051L34.9121 37.5928L39.8096 21.8047C40.8831 18.3626 41.4033 16.2653 41.3701 15.5127H45.5869V15.8613C44.8011 15.8613 44.2533 16.0661 43.9434 16.4756C43.6335 16.8851 43.5007 17.6432 43.5449 18.75L45.3047 37.0117Z" fill="#333333"/>
</svg>
