<svg id="Group_36390" data-name="Group 36390" xmlns="http://www.w3.org/2000/svg" xmlns:xlink="http://www.w3.org/1999/xlink" width="245" height="245" viewBox="0 0 245 245">
  <defs>
    <clipPath id="clip-path">
      <rect id="Rectangle_10490" data-name="Rectangle 10490" width="245" height="245" fill="none" stroke="#000" stroke-width="1"/>
    </clipPath>
  </defs>
  <g id="Group_36389" data-name="Group 36389">
    <g id="Group_36388" data-name="Group 36388" clip-path="url(#clip-path)">
      <circle id="Ellipse_2183" data-name="Ellipse 2183" cx="99.532" cy="99.532" r="99.532" transform="translate(-18.259 122.496) rotate(-45)" fill="none" stroke="#000" stroke-width="0.75"/>
      <circle id="Ellipse_2184" data-name="Ellipse 2184" cx="96.793" cy="96.793" r="96.793" transform="translate(25.707 25.703)" fill="none" stroke="#000" stroke-width="0.75"/>
      <circle id="Ellipse_2185" data-name="Ellipse 2185" cx="59.31" cy="59.31" r="59.31" transform="translate(63.19 63.186)" fill="none" stroke="#000" stroke-width="0.75"/>
      <circle id="Ellipse_2186" data-name="Ellipse 2186" cx="60.819" cy="60.819" r="60.819" transform="translate(61.681 61.677)" fill="none" stroke="#000" stroke-width="0.75"/>
      <circle id="Ellipse_2187" data-name="Ellipse 2187" cx="48.606" cy="48.606" r="48.606" transform="translate(73.708 74.077) rotate(-0.22)" fill="none" stroke="#000" stroke-width="0.75"/>
      <circle id="Ellipse_2188" data-name="Ellipse 2188" cx="46.643" cy="46.643" r="46.643" transform="translate(75.857 75.852)" fill="none" stroke="#000" stroke-width="0.75"/>
      <circle id="Ellipse_2189" data-name="Ellipse 2189" cx="99.532" cy="99.532" r="99.532" transform="translate(-18.259 122.496) rotate(-45)" fill="none" stroke="#000" stroke-width="0.75"/>
      <circle id="Ellipse_2190" data-name="Ellipse 2190" cx="103.015" cy="103.015" r="103.015" transform="translate(19.485 19.481)" fill="none" stroke="#000" stroke-width="0.75"/>
      <circle id="Ellipse_2191" data-name="Ellipse 2191" cx="96.793" cy="96.793" r="96.793" transform="translate(25.707 25.703)" fill="none" stroke="#000" stroke-width="0.75"/>
      <circle id="Ellipse_2192" data-name="Ellipse 2192" cx="59.31" cy="59.31" r="59.31" transform="translate(63.19 63.186)" fill="none" stroke="#000" stroke-width="0.75"/>
      <circle id="Ellipse_2193" data-name="Ellipse 2193" cx="60.819" cy="60.819" r="60.819" transform="translate(61.681 61.677)" fill="none" stroke="#000" stroke-width="0.75"/>
      <circle id="Ellipse_2194" data-name="Ellipse 2194" cx="48.606" cy="48.606" r="48.606" transform="translate(73.708 74.077) rotate(-0.22)" fill="none" stroke="#000" stroke-width="0.75"/>
      <circle id="Ellipse_2195" data-name="Ellipse 2195" cx="46.643" cy="46.643" r="46.643" transform="translate(75.857 75.852)" fill="none" stroke="#000" stroke-width="0.75"/>
      <path id="Path_198069" data-name="Path 198069" d="M137.392,176.189a38.8,38.8,0,1,1,38.8,38.8A38.8,38.8,0,0,1,137.392,176.189Z" transform="translate(-53.696 -53.693)" fill="none" stroke="#000" stroke-width="0.75"/>
      <circle id="Ellipse_2196" data-name="Ellipse 2196" cx="40.724" cy="40.724" r="40.724" transform="translate(81.672 81.876) rotate(-0.146)" fill="none" stroke="#000" stroke-width="0.75"/>
      <line id="Line_563" data-name="Line 563" y1="7.966" transform="translate(122.5 75.725)" fill="none" stroke="#000" stroke-width="0.75"/>
      <line id="Line_564" data-name="Line 564" y1="6.045" transform="translate(122.5 163.22)" fill="none" stroke="#000" stroke-width="0.75"/>
      <line id="Line_565" data-name="Line 565" x2="7.966" transform="translate(161.304 122.496)" fill="none" stroke="#000" stroke-width="0.75"/>
      <line id="Line_566" data-name="Line 566" x2="7.966" transform="translate(75.73 122.496)" fill="none" stroke="#000" stroke-width="0.75"/>
      <line id="Line_567" data-name="Line 567" y1="5.646" x2="5.646" transform="translate(149.926 89.424)" fill="none" stroke="#000" stroke-width="0.75"/>
      <line id="Line_568" data-name="Line 568" y1="5.745" x2="5.745" transform="translate(89.429 149.822)" fill="none" stroke="#000" stroke-width="0.75"/>
      <line id="Line_569" data-name="Line 569" x2="5.633" y2="5.633" transform="translate(149.938 149.934)" fill="none" stroke="#000" stroke-width="0.75"/>
      <line id="Line_570" data-name="Line 570" x2="5.646" y2="5.646" transform="translate(89.429 89.424)" fill="none" stroke="#000" stroke-width="0.75"/>
      <line id="Line_571" data-name="Line 571" y1="7.381" x2="2.969" transform="translate(136.983 79.103)" fill="none" stroke="#000" stroke-width="0.75"/>
      <line id="Line_572" data-name="Line 572" y1="7.381" x2="2.969" transform="translate(105.049 158.507)" fill="none" stroke="#000" stroke-width="0.75"/>
      <line id="Line_573" data-name="Line 573" x2="7.391" y2="2.973" transform="translate(158.501 136.975)" fill="none" stroke="#000" stroke-width="0.75"/>
      <line id="Line_574" data-name="Line 574" x2="7.381" y2="2.969" transform="translate(79.108 105.044)" fill="none" stroke="#000" stroke-width="0.75"/>
      <line id="Line_575" data-name="Line 575" y1="3.12" x2="7.319" transform="translate(158.204 104.153)" fill="none" stroke="#000" stroke-width="0.75"/>
      <line id="Line_576" data-name="Line 576" y1="3.152" x2="7.392" transform="translate(79.477 137.687)" fill="none" stroke="#000" stroke-width="0.75"/>
      <line id="Line_577" data-name="Line 577" x2="3.12" y2="7.319" transform="translate(137.723 158.2)" fill="none" stroke="#000" stroke-width="0.75"/>
      <line id="Line_578" data-name="Line 578" x2="3.12" y2="7.319" transform="translate(104.157 79.473)" fill="none" stroke="#000" stroke-width="0.75"/>
      <line id="Line_579" data-name="Line 579" y1="7.821" x2="1.48" transform="translate(129.715 76.541)" fill="none" stroke="#000" stroke-width="0.75"/>
      <line id="Line_580" data-name="Line 580" y1="7.82" x2="1.48" transform="translate(113.805 160.63)" fill="none" stroke="#000" stroke-width="0.75"/>
      <line id="Line_581" data-name="Line 581" x2="7.82" y2="1.48" transform="translate(160.634 129.711)" fill="none" stroke="#000" stroke-width="0.75"/>
      <line id="Line_582" data-name="Line 582" x2="7.821" y2="1.48" transform="translate(76.545 113.801)" fill="none" stroke="#000" stroke-width="0.75"/>
      <line id="Line_583" data-name="Line 583" y1="4.485" x2="6.579" transform="translate(154.564 96.149)" fill="none" stroke="#000" stroke-width="0.75"/>
      <line id="Line_584" data-name="Line 584" y1="4.529" x2="6.643" transform="translate(83.857 144.313)" fill="none" stroke="#000" stroke-width="0.75"/>
      <line id="Line_585" data-name="Line 585" x2="4.485" y2="6.579" transform="translate(144.361 154.56)" fill="none" stroke="#000" stroke-width="0.75"/>
      <line id="Line_586" data-name="Line 586" x2="4.485" y2="6.579" transform="translate(96.153 83.853)" fill="none" stroke="#000" stroke-width="0.75"/>
      <line id="Line_587" data-name="Line 587" y1="6.683" x2="4.278" transform="translate(143.437 83.104)" fill="none" stroke="#000" stroke-width="0.75"/>
      <line id="Line_588" data-name="Line 588" y1="6.706" x2="4.292" transform="translate(97.286 155.181)" fill="none" stroke="#000" stroke-width="0.75"/>
      <line id="Line_589" data-name="Line 589" x2="6.705" y2="4.292" transform="translate(155.186 143.418)" fill="none" stroke="#000" stroke-width="0.75"/>
      <line id="Line_590" data-name="Line 590" x2="6.705" y2="4.292" transform="translate(83.109 97.282)" fill="none" stroke="#000" stroke-width="0.75"/>
      <line id="Line_591" data-name="Line 591" y1="1.706" x2="7.773" transform="translate(160.41 112.471)" fill="none" stroke="#000" stroke-width="0.75"/>
      <line id="Line_592" data-name="Line 592" y1="1.706" x2="7.773" transform="translate(76.817 130.815)" fill="none" stroke="#000" stroke-width="0.75"/>
      <line id="Line_593" data-name="Line 593" x2="1.294" y2="5.897" transform="translate(131.231 162.282)" fill="none" stroke="#000" stroke-width="0.75"/>
      <line id="Line_594" data-name="Line 594" x2="1.717" y2="7.823" transform="translate(112.475 76.813)" fill="none" stroke="#000" stroke-width="0.75"/>
      <path id="Path_198070" data-name="Path 198070" d="M295.675,99.4c-.473-.051-1.458-1.224-2.045-2.247a.758.758,0,0,0-.649-.38.778.778,0,0,0-.657.366l-2.64,4.383a5.569,5.569,0,0,0-2.029,0l-2.64-4.383a.758.758,0,0,0-1.305.014c-.587,1.022-1.572,2.2-2.046,2.247a.757.757,0,1,0,.159,1.506,4.335,4.335,0,0,0,2.518-1.949l1.825,3.03a5.975,5.975,0,1,0,5.007,0L293,98.96a4.338,4.338,0,0,0,2.518,1.949.757.757,0,1,0,.159-1.506m-2.546,8a4.46,4.46,0,1,1-4.46-4.46,4.465,4.465,0,0,1,4.46,4.46" transform="translate(-109.816 -37.822)" fill="#dadada" stroke="#000" stroke-width="1"/>
      <path id="Path_198071" data-name="Path 198071" d="M240.046,331.349a2.912,2.912,0,0,1-2.747-1.789,4.047,4.047,0,0,1-.361-1.725v-9.2a1.423,1.423,0,1,0-2.846,0v9.607a.757.757,0,0,1-1.514,0v-9.607a2.937,2.937,0,1,1,5.875,0v9.2a2.555,2.555,0,0,0,.219,1.086,1.4,1.4,0,0,0,1.374.914.757.757,0,0,1,0,1.514" transform="translate(-90.897 -123.382)" fill="#d4d4d4" stroke="#000" stroke-width="1"/>
      <path id="Path_198072" data-name="Path 198072" d="M230.536,329a.757.757,0,0,1-.757-.757v-9.607a1.423,1.423,0,1,0-2.846,0v9.607a.758.758,0,0,1-1.515,0v-9.607a2.938,2.938,0,0,1,5.875,0v9.607a.757.757,0,0,1-.757.757" transform="translate(-88.099 -123.382)" fill="#d4d4d4" stroke="#000" stroke-width="1"/>
      <path id="Path_198073" data-name="Path 198073" d="M225.339,317.913a.757.757,0,0,1-.715-.507,1.578,1.578,0,0,0-1.431-1.053.757.757,0,1,1,0-1.514,3.113,3.113,0,0,1,2.862,2.072.757.757,0,0,1-.471.962.765.765,0,0,1-.245.041" transform="translate(-86.933 -123.046)" fill="#d4d4d4" stroke="#000" stroke-width="1"/>
      <path id="Path_198074" data-name="Path 198074" d="M235.068,334.374a.758.758,0,0,1-.221-1.482c4.456-1.358,5.76-5.224,5.238-7.006a1.089,1.089,0,0,0-1.508-.863.757.757,0,0,1-.409-1.458,2.582,2.582,0,0,1,3.372,1.9c.766,2.618-1.019,7.286-6.251,8.881a.775.775,0,0,1-.221.033" transform="translate(-91.574 -126.407)" fill="#d4d4d4" stroke="#000" stroke-width="1"/>
      <path id="Path_198075" data-name="Path 198075" d="M113.761,294.18a2.912,2.912,0,0,1-2.747-1.789,4.053,4.053,0,0,1-.361-1.725v-9.2a1.423,1.423,0,0,0-2.846,0v9.607a.757.757,0,0,1-1.514,0v-9.607a2.938,2.938,0,0,1,5.876,0v9.2a2.562,2.562,0,0,0,.219,1.086,1.4,1.4,0,0,0,1.374.914.757.757,0,1,1,0,1.514" transform="translate(-41.542 -108.855)" fill="#c7c7c7" stroke="#000" stroke-width="1"/>
      <path id="Path_198076" data-name="Path 198076" d="M104.252,291.829a.757.757,0,0,1-.757-.757v-9.607a1.423,1.423,0,1,0-2.846,0v9.607a.758.758,0,0,1-1.515,0v-9.607a2.938,2.938,0,0,1,5.875,0v9.607a.757.757,0,0,1-.757.757" transform="translate(-38.744 -108.855)" fill="#c7c7c7" stroke="#000" stroke-width="1"/>
      <path id="Path_198077" data-name="Path 198077" d="M99.055,280.743a.757.757,0,0,1-.715-.507,1.577,1.577,0,0,0-1.431-1.053.757.757,0,1,1,0-1.514,3.112,3.112,0,0,1,2.862,2.072.757.757,0,0,1-.472.961.748.748,0,0,1-.245.041" transform="translate(-37.579 -108.52)" fill="#c7c7c7" stroke="#000" stroke-width="1"/>
      <path id="Path_198078" data-name="Path 198078" d="M117.791,303.839a.757.757,0,0,1-.757-.757v-2.961a.757.757,0,0,1,1.145-.651l2.482,1.48a.757.757,0,0,1,0,1.3l-2.482,1.48a.763.763,0,0,1-.388.107m.757-2.384v.294l.246-.147Z" transform="translate(-45.74 -116.999)" fill="#c7c7c7" stroke="#000" stroke-width="1"/>
      <path id="Path_198079" data-name="Path 198079" d="M76.458,169.086a.757.757,0,0,1-.757-.757v-6.646a3.566,3.566,0,1,0-7.132,0v6.646a.757.757,0,0,1-1.514,0v-6.646a5.08,5.08,0,1,1,10.16,0v6.646a.757.757,0,0,1-.757.757" transform="translate(-26.207 -61.204)" fill="#c3c3c3" stroke="#000" stroke-width="1"/>
      <path id="Path_198080" data-name="Path 198080" d="M66.694,159.636a.758.758,0,0,1-.73-.557,2.985,2.985,0,0,0-2.77-2.18.758.758,0,1,1,0-1.515,4.461,4.461,0,0,1,4.231,3.3.757.757,0,0,1-.534.928.769.769,0,0,1-.2.026" transform="translate(-24.402 -60.727)" fill="#c3c3c3" stroke="#000" stroke-width="1"/>
      <path id="Path_198081" data-name="Path 198081" d="M84.231,177.116a2.982,2.982,0,1,1,2.983-2.983,2.986,2.986,0,0,1-2.983,2.983m0-4.45a1.468,1.468,0,1,0,1.468,1.467,1.47,1.47,0,0,0-1.468-1.467" transform="translate(-31.754 -66.89)" fill="#c3c3c3" stroke="#000" stroke-width="1"/>
      <path id="Path_198082" data-name="Path 198082" d="M77.67,178.964a.757.757,0,0,1,0-1.514c.718,0,1.922-.159,1.922-1.22a.757.757,0,0,1,1.514,0c0,1.661-1.349,2.735-3.436,2.735" transform="translate(-30.059 -68.579)" fill="none" stroke="#000" stroke-width="1"/>
      <path id="Path_198083" data-name="Path 198083" d="M321.16,162.918a21.842,21.842,0,0,1-7.64-1.269.757.757,0,0,1,.57-1.4,22.754,22.754,0,0,0,14.361-.017.757.757,0,1,1,.475,1.438,24.717,24.717,0,0,1-7.766,1.251" transform="translate(-122.347 -62.606)" fill="#d9d9d9" stroke="#000" stroke-width="1"/>
      <path id="Path_198084" data-name="Path 198084" d="M313.805,180.656a.758.758,0,0,1-.238-1.477,23.845,23.845,0,0,1,15.406.018.757.757,0,0,1-.57,1.4,22.75,22.75,0,0,0-14.361.017.751.751,0,0,1-.238.038" transform="translate(-122.347 -69.538)" fill="#d9d9d9" stroke="#000" stroke-width="1"/>
      <path id="Path_198085" data-name="Path 198085" d="M318.056,173.363a.757.757,0,0,1-.757-.757V162.093a.757.757,0,1,1,1.514,0v10.513a.757.757,0,0,1-.757.757" transform="translate(-124.008 -63.054)" fill="#d9d9d9" stroke="#000" stroke-width="1"/>
      <path id="Path_198086" data-name="Path 198086" d="M333.986,173.363a.757.757,0,0,1-.757-.757V162.093a.757.757,0,1,1,1.514,0v10.513a.757.757,0,0,1-.757.757" transform="translate(-130.234 -63.054)" fill="#d9d9d9" stroke="#000" stroke-width="1"/>
      <path id="Path_198087" data-name="Path 198087" d="M174.9,79.3a.758.758,0,0,1-.719-.52,23.852,23.852,0,0,1,.017-15.406.757.757,0,0,1,1.4.57,22.751,22.751,0,0,0,.018,14.361.758.758,0,0,1-.719,1" transform="translate(-67.586 -24.584)" fill="#cbcbcb" stroke="#000" stroke-width="1"/>
      <path id="Path_198088" data-name="Path 198088" d="M162.166,79.3a.758.758,0,0,1-.7-1.042,22.745,22.745,0,0,0-.017-14.361.757.757,0,1,1,1.438-.475,23.846,23.846,0,0,1-.018,15.406.758.758,0,0,1-.7.472" transform="translate(-63.082 -24.584)" fill="#cbcbcb" stroke="#000" stroke-width="1"/>
      <path id="Path_198089" data-name="Path 198089" d="M170.9,76.633H160.384a.758.758,0,0,1,0-1.515H170.9a.758.758,0,0,1,0,1.515" transform="translate(-62.386 -29.358)" fill="#cbcbcb" stroke="#000" stroke-width="1"/>
      <path id="Path_198090" data-name="Path 198090" d="M168.66,326.17a.75.75,0,0,1-.419-.127.758.758,0,0,1-.211-1.05,4.922,4.922,0,1,0-8.2,0,.757.757,0,1,1-1.26.84,6.437,6.437,0,1,1,10.721,0,.758.758,0,0,1-.631.337" transform="translate(-61.552 -123.435)" fill="#cbcbcb" stroke="#000" stroke-width="1"/>
      <path id="Path_198091" data-name="Path 198091" d="M180.769,331.83H175.34a.757.757,0,1,1,0-1.514h5.428a.757.757,0,1,1,0,1.514" transform="translate(-68.231 -129.096)" fill="#cbcbcb" stroke="#000" stroke-width="1"/>
      <path id="Path_198092" data-name="Path 198092" d="M156.335,331.83H150.9a.757.757,0,1,1,0-1.514h5.438a.757.757,0,1,1,0,1.514" transform="translate(-58.678 -129.096)" fill="#cbcbcb" stroke="#000" stroke-width="1"/>
      <path id="Path_198093" data-name="Path 198093" d="M171.216,324.588H150.9a.757.757,0,1,1,0-1.514h20.318a.757.757,0,1,1,0,1.514" transform="translate(-58.679 -126.265)" fill="#cbcbcb" stroke="#000" stroke-width="1"/>
      <path id="Path_198094" data-name="Path 198094" d="M100.444,105.447a.755.755,0,0,1-.535-.222l-2.5-2.5-2.5,2.5a.757.757,0,0,1-1.071-1.071l3.575-3.576,3.575,3.576a.757.757,0,0,1-.535,1.293" transform="translate(-36.584 -39.308)" fill="#c6c6c6" stroke="#000" stroke-width="1"/>
      <path id="Path_198095" data-name="Path 198095" d="M110.437,105.447a.755.755,0,0,1-.535-.222l-2.5-2.5-2.5,2.5a.757.757,0,0,1-1.071-1.071l3.575-3.576,3.575,3.576a.757.757,0,0,1-.535,1.293" transform="translate(-40.489 -39.308)" fill="#c6c6c6" stroke="#000" stroke-width="1"/>
      <path id="Path_198096" data-name="Path 198096" d="M114.349,105.447a.757.757,0,0,1-.535-1.293l3.575-3.576,3.575,3.576a.757.757,0,0,1-1.071,1.071l-2.5-2.5-2.5,2.5a.754.754,0,0,1-.535.222" transform="translate(-44.394 -39.308)" fill="#c6c6c6" stroke="#000" stroke-width="1"/>
      <path id="Path_198097" data-name="Path 198097" d="M100.444,112.374a.755.755,0,0,1-.535-.222l-2.5-2.5-2.5,2.5a.757.757,0,0,1-1.071-1.071l3.575-3.575,3.575,3.575a.757.757,0,0,1-.535,1.293" transform="translate(-36.584 -42.016)" fill="#c6c6c6" stroke="#000" stroke-width="1"/>
      <path id="Path_198098" data-name="Path 198098" d="M110.437,112.374a.755.755,0,0,1-.535-.222l-2.5-2.5-2.5,2.5a.757.757,0,0,1-1.071-1.071l3.575-3.575,3.575,3.575a.757.757,0,0,1-.535,1.293" transform="translate(-40.489 -42.016)" fill="#c6c6c6" stroke="#000" stroke-width="1"/>
      <path id="Path_198099" data-name="Path 198099" d="M114.349,112.374a.757.757,0,0,1-.535-1.293l3.575-3.575,3.575,3.575a.757.757,0,0,1-1.071,1.071l-2.5-2.5-2.5,2.5a.754.754,0,0,1-.535.222" transform="translate(-44.394 -42.016)" fill="#c6c6c6" stroke="#000" stroke-width="1"/>
      <path id="Path_198100" data-name="Path 198100" d="M315.933,232.047a3.626,3.626,0,1,1,3.627-3.626,3.631,3.631,0,0,1-3.627,3.626m0-5.738a2.112,2.112,0,1,0,2.112,2.112,2.114,2.114,0,0,0-2.112-2.112" transform="translate(-122.057 -87.855)" fill="#dcdcdc" stroke="#000" stroke-width="1"/>
      <path id="Path_198101" data-name="Path 198101" d="M314.218,226.4a.757.757,0,0,1-.57-1.256c4.247-4.859,14.408-1.569,14.839-1.426a.757.757,0,0,1-.476,1.438c-.1-.032-9.637-3.118-13.223.985a.757.757,0,0,1-.571.259" transform="translate(-122.508 -86.958)" fill="#dcdcdc" stroke="#000" stroke-width="1"/>
      <path id="Path_198102" data-name="Path 198102" d="M330.7,237.733a3.626,3.626,0,1,1,3.626-3.626,3.631,3.631,0,0,1-3.626,3.626m0-5.738a2.112,2.112,0,1,0,2.112,2.112,2.114,2.114,0,0,0-2.112-2.112" transform="translate(-127.829 -90.077)" fill="#dcdcdc" stroke="#000" stroke-width="1"/>
      <path id="Path_198103" data-name="Path 198103" d="M320.325,242.178a26.68,26.68,0,0,1-7.5-1.221.757.757,0,0,1,.475-1.438c.1.032,9.637,3.118,13.223-.985a.757.757,0,1,1,1.14,1c-1.787,2.046-4.624,2.647-7.339,2.647" transform="translate(-122.057 -93.124)" fill="#dcdcdc" stroke="#000" stroke-width="1"/>
      <path id="Path_198104" data-name="Path 198104" d="M283.548,293.843a4.067,4.067,0,1,1,4.067-4.068,4.072,4.072,0,0,1-4.067,4.068m0-6.621a2.553,2.553,0,1,0,2.552,2.552,2.556,2.556,0,0,0-2.552-2.552" transform="translate(-109.228 -111.662)" fill="#d8d8d8" stroke="#000" stroke-width="1"/>
      <path id="Path_198105" data-name="Path 198105" d="M294.26,295.92a.7.7,0,0,1-.123-.01,3.368,3.368,0,0,1-2.408-1.466c-1.274-1.964-.385-5.336.4-8.312.294-1.114.571-2.166.709-3.037a2.253,2.253,0,0,0-.821-2.253,2.467,2.467,0,0,0-2.469-.3c-1.072.471-1.743,1.673-1.89,3.383a.758.758,0,1,1-1.51-.129c.265-3.088,1.862-4.233,2.789-4.641a3.95,3.95,0,0,1,4,.486,3.766,3.766,0,0,1,1.392,3.69c-.15.946-.437,2.034-.741,3.186-.669,2.54-1.5,5.7-.594,7.1a1.9,1.9,0,0,0,1.382.8.757.757,0,0,1-.121,1.5" transform="translate(-111.833 -108.97)" fill="#d8d8d8" stroke="#000" stroke-width="1"/>
      <path id="Path_198106" data-name="Path 198106" d="M68.078,235.557a.757.757,0,0,1-.535-1.293l9.958-9.959a.757.757,0,1,1,1.072,1.071l-9.959,9.959a.755.755,0,0,1-.535.222" transform="translate(-26.311 -87.577)" fill="#c1c1c1" stroke="#000" stroke-width="1"/>
      <path id="Path_198107" data-name="Path 198107" d="M82.074,229.251a.757.757,0,0,1-.757-.757v-4.363H76.746a.758.758,0,0,1,0-1.515h5.328a.757.757,0,0,1,.757.757v5.121a.757.757,0,0,1-.757.757" transform="translate(-29.698 -87.004)" fill="#c1c1c1" stroke="#000" stroke-width="1"/>
      <path id="Path_198108" data-name="Path 198108" d="M73.336,238.419a.754.754,0,0,1-.535-.222l-5.049-5.049a.757.757,0,0,1,1.071-1.071l5.049,5.049a.757.757,0,0,1-.535,1.293" transform="translate(-26.392 -90.615)" fill="#c1c1c1" stroke="#000" stroke-width="1"/>
      <path id="Path_198109" data-name="Path 198109" d="M227.767,79.666a.758.758,0,0,1-.757-.757c0-12.669-3.207-15.252-4.585-15.774a2.724,2.724,0,0,0-2.951.708,2.189,2.189,0,0,0-.467,2.409,2.082,2.082,0,0,0,1.835,1.254c.671,0,.917-.409.922-.759,0-.155-.046-.662-.779-.686a.757.757,0,0,1-.732-.782.77.77,0,0,1,.782-.732,2.186,2.186,0,0,1,2.243,2.225,2.321,2.321,0,0,1-2.437,2.249,3.57,3.57,0,0,1-3.216-2.147,3.691,3.691,0,0,1,.714-4.035,4.209,4.209,0,0,1,4.622-1.121c2.538.961,5.563,4.724,5.563,17.19a.757.757,0,0,1-.757.757" transform="translate(-84.929 -24.013)" fill="#c6c6c6" stroke="#000" stroke-width="1"/>
      <path id="Path_198110" data-name="Path 198110" d="M233.991,79.666a.758.758,0,0,1-.757-.757c0-12.466,3.025-16.229,5.563-17.19a4.209,4.209,0,0,1,4.622,1.121,3.69,3.69,0,0,1,.714,4.035,3.57,3.57,0,0,1-3.216,2.147,2.321,2.321,0,0,1-2.437-2.249,2.186,2.186,0,0,1,2.243-2.225.757.757,0,0,1,.051,1.514c-.733.024-.782.531-.779.686.006.35.251.759.922.759a2.082,2.082,0,0,0,1.835-1.254,2.188,2.188,0,0,0-.467-2.409,2.722,2.722,0,0,0-2.951-.708c-1.379.522-4.585,3.1-4.585,15.774a.757.757,0,0,1-.757.757" transform="translate(-91.154 -24.013)" fill="#c6c6c6" stroke="#000" stroke-width="1"/>
      <line id="Line_595" data-name="Line 595" y2="48.187" transform="translate(122.5 25.703)" fill="none" stroke="#000" stroke-width="0.75"/>
      <line id="Line_596" data-name="Line 596" y2="48.187" transform="translate(122.5 171.22)" fill="none" stroke="#000" stroke-width="0.75"/>
      <line id="Line_597" data-name="Line 597" x1="48.187" transform="translate(171.165 122.555)" fill="none" stroke="#000" stroke-width="0.75"/>
      <line id="Line_598" data-name="Line 598" x1="48.187" transform="translate(25.648 122.555)" fill="none" stroke="#000" stroke-width="0.75"/>
      <line id="Line_599" data-name="Line 599" y2="48.187" transform="translate(122.5 25.703)" fill="none" stroke="#000" stroke-width="0.75"/>
      <line id="Line_600" data-name="Line 600" y2="48.187" transform="translate(122.5 171.22)" fill="none" stroke="#000" stroke-width="0.75"/>
      <line id="Line_601" data-name="Line 601" x1="48.187" transform="translate(171.165 122.555)" fill="none" stroke="#000" stroke-width="0.75"/>
      <line id="Line_602" data-name="Line 602" x1="48.187" transform="translate(25.648 122.555)" fill="none" stroke="#000" stroke-width="0.75"/>
      <line id="Line_603" data-name="Line 603" x2="24.128" y2="41.711" transform="translate(74.033 38.711)" fill="none" stroke="#000" stroke-width="0.75"/>
      <line id="Line_604" data-name="Line 604" x2="41.752" y2="24.059" transform="translate(38.634 74.169)" fill="none" stroke="#000" stroke-width="0.75"/>
      <line id="Line_605" data-name="Line 605" x2="24.129" y2="41.711" transform="translate(146.838 164.569)" fill="none" stroke="#000" stroke-width="0.75"/>
      <line id="Line_606" data-name="Line 606" x2="41.752" y2="24.059" transform="translate(164.614 146.763)" fill="none" stroke="#000" stroke-width="0.75"/>
      <line id="Line_607" data-name="Line 607" y2="48.187" transform="translate(122.5 25.703)" fill="none" stroke="#000" stroke-width="0.75"/>
      <line id="Line_608" data-name="Line 608" y2="48.187" transform="translate(122.5 171.22)" fill="none" stroke="#000" stroke-width="0.75"/>
      <line id="Line_609" data-name="Line 609" x1="48.187" transform="translate(171.165 122.555)" fill="none" stroke="#000" stroke-width="0.75"/>
      <line id="Line_610" data-name="Line 610" x1="48.187" transform="translate(25.648 122.555)" fill="none" stroke="#000" stroke-width="0.75"/>
      <line id="Line_611" data-name="Line 611" x2="24.128" y2="41.711" transform="translate(74.033 38.711)" fill="none" stroke="#000" stroke-width="0.75"/>
      <line id="Line_612" data-name="Line 612" x2="41.752" y2="24.059" transform="translate(38.634 74.169)" fill="none" stroke="#000" stroke-width="0.75"/>
      <line id="Line_613" data-name="Line 613" x2="24.129" y2="41.711" transform="translate(146.838 164.569)" fill="none" stroke="#000" stroke-width="0.75"/>
      <line id="Line_614" data-name="Line 614" x2="41.752" y2="24.059" transform="translate(164.614 146.763)" fill="none" stroke="#000" stroke-width="0.75"/>
      <line id="Line_615" data-name="Line 615" x1="41.711" y2="24.128" transform="translate(164.574 74.029)" fill="none" stroke="#000" stroke-width="0.75"/>
      <line id="Line_616" data-name="Line 616" x1="24.059" y2="41.752" transform="translate(146.768 38.63)" fill="none" stroke="#000" stroke-width="0.75"/>
      <line id="Line_617" data-name="Line 617" x1="41.711" y2="24.129" transform="translate(38.716 146.834)" fill="none" stroke="#000" stroke-width="0.75"/>
      <line id="Line_618" data-name="Line 618" x1="24.059" y2="41.752" transform="translate(74.174 164.61)" fill="none" stroke="#000" stroke-width="0.75"/>
      <line id="Line_619" data-name="Line 619" y1="3.482" transform="translate(122.5 19.481)" fill="none" stroke="#000" stroke-width="0.75"/>
      <line id="Line_620" data-name="Line 620" y2="3.482" transform="translate(122.5 222.028)" fill="none" stroke="#000" stroke-width="0.75"/>
      <line id="Line_621" data-name="Line 621" x1="3.482" transform="translate(222.033 122.496)" fill="none" stroke="#000" stroke-width="0.75"/>
      <line id="Line_622" data-name="Line 622" x1="3.482" transform="translate(19.486 122.496)" fill="none" stroke="#000" stroke-width="0.75"/>
      <line id="Line_623" data-name="Line 623" x1="2.462" y2="2.462" transform="translate(192.88 49.653)" fill="none" stroke="#000" stroke-width="0.75"/>
      <line id="Line_624" data-name="Line 624" x1="2.462" y2="2.462" transform="translate(49.658 192.876)" fill="none" stroke="#000" stroke-width="0.75"/>
      <line id="Line_625" data-name="Line 625" x1="2.462" y1="2.462" transform="translate(192.88 192.876)" fill="none" stroke="#000" stroke-width="0.75"/>
      <line id="Line_626" data-name="Line 626" x1="2.462" y1="2.462" transform="translate(49.658 49.653)" fill="none" stroke="#000" stroke-width="0.75"/>
      <line id="Line_627" data-name="Line 627" x1="1.736" y2="3.019" transform="translate(172.1 33.183)" fill="none" stroke="#000" stroke-width="0.75"/>
      <line id="Line_628" data-name="Line 628" x1="1.736" y2="3.019" transform="translate(71.165 208.789)" fill="none" stroke="#000" stroke-width="0.75"/>
      <line id="Line_629" data-name="Line 629" x1="3.019" y1="1.736" transform="translate(208.793 172.095)" fill="none" stroke="#000" stroke-width="0.75"/>
      <line id="Line_630" data-name="Line 630" x1="3.019" y1="1.736" transform="translate(33.188 71.16)" fill="none" stroke="#000" stroke-width="0.75"/>
      <line id="Line_631" data-name="Line 631" x1="3.362" y2="0.908" transform="translate(218.591 95.642)" fill="none" stroke="#000" stroke-width="0.75"/>
      <line id="Line_632" data-name="Line 632" x1="3.362" y2="0.908" transform="translate(23.047 148.442)" fill="none" stroke="#000" stroke-width="0.75"/>
      <line id="Line_633" data-name="Line 633" x1="0.908" y1="3.362" transform="translate(148.446 218.587)" fill="none" stroke="#000" stroke-width="0.75"/>
      <line id="Line_634" data-name="Line 634" x1="0.908" y1="3.362" transform="translate(95.646 23.043)" fill="none" stroke="#000" stroke-width="0.75"/>
      <line id="Line_635" data-name="Line 635" x1="0.902" y2="3.364" transform="translate(148.272 22.994)" fill="none" stroke="#000" stroke-width="0.75"/>
      <line id="Line_636" data-name="Line 636" x1="0.902" y2="3.363" transform="translate(95.827 218.633)" fill="none" stroke="#000" stroke-width="0.75"/>
      <line id="Line_637" data-name="Line 637" x1="3.363" y1="0.902" transform="translate(218.638 148.268)" fill="none" stroke="#000" stroke-width="0.75"/>
      <line id="Line_638" data-name="Line 638" x1="3.364" y1="0.902" transform="translate(22.998 95.822)" fill="none" stroke="#000" stroke-width="0.75"/>
      <line id="Line_639" data-name="Line 639" x1="3.016" y2="1.741" transform="translate(208.703 70.999)" fill="none" stroke="#000" stroke-width="0.75"/>
      <line id="Line_640" data-name="Line 640" x1="3.016" y2="1.741" transform="translate(33.281 172.252)" fill="none" stroke="#000" stroke-width="0.75"/>
      <line id="Line_641" data-name="Line 641" x1="1.741" y1="3.016" transform="translate(172.256 208.699)" fill="none" stroke="#000" stroke-width="0.75"/>
      <line id="Line_642" data-name="Line 642" x1="1.741" y1="3.016" transform="translate(71.003 33.276)" fill="none" stroke="#000" stroke-width="0.75"/>
      <line id="Line_643" data-name="Line 643" x1="0.457" y2="3.452" transform="translate(135.567 20.373)" fill="none" stroke="#000" stroke-width="0.75"/>
      <line id="Line_644" data-name="Line 644" x1="0.457" y2="3.452" transform="translate(108.977 221.166)" fill="none" stroke="#000" stroke-width="0.75"/>
      <line id="Line_645" data-name="Line 645" x1="3.452" y1="0.457" transform="translate(221.171 135.562)" fill="none" stroke="#000" stroke-width="0.75"/>
      <line id="Line_646" data-name="Line 646" x1="3.452" y1="0.457" transform="translate(20.377 108.972)" fill="none" stroke="#000" stroke-width="0.75"/>
      <line id="Line_647" data-name="Line 647" x1="2.764" y2="2.118" transform="translate(201.51 59.846)" fill="none" stroke="#000" stroke-width="0.75"/>
      <line id="Line_648" data-name="Line 648" x1="2.764" y2="2.118" transform="translate(40.725 183.027)" fill="none" stroke="#000" stroke-width="0.75"/>
      <line id="Line_649" data-name="Line 649" x1="2.118" y1="2.764" transform="translate(183.031 201.506)" fill="none" stroke="#000" stroke-width="0.75"/>
      <line id="Line_650" data-name="Line 650" x1="2.118" y1="2.764" transform="translate(59.851 40.721)" fill="none" stroke="#000" stroke-width="0.75"/>
      <line id="Line_651" data-name="Line 651" x1="2.117" y2="2.765" transform="translate(182.999 40.696)" fill="none" stroke="#000" stroke-width="0.75"/>
      <line id="Line_652" data-name="Line 652" x1="2.117" y2="2.765" transform="translate(59.884 201.531)" fill="none" stroke="#000" stroke-width="0.75"/>
      <line id="Line_653" data-name="Line 653" x1="2.765" y1="2.117" transform="translate(201.535 182.995)" fill="none" stroke="#000" stroke-width="0.75"/>
      <line id="Line_654" data-name="Line 654" x1="2.765" y1="2.117" transform="translate(40.7 59.88)" fill="none" stroke="#000" stroke-width="0.75"/>
      <line id="Line_655" data-name="Line 655" x1="3.452" y2="0.459" transform="translate(221.165 108.93)" fill="none" stroke="#000" stroke-width="0.75"/>
      <line id="Line_656" data-name="Line 656" x1="3.452" y2="0.459" transform="translate(20.382 135.602)" fill="none" stroke="#000" stroke-width="0.75"/>
      <line id="Line_657" data-name="Line 657" x1="0.459" y1="3.452" transform="translate(135.607 221.161)" fill="none" stroke="#000" stroke-width="0.75"/>
      <line id="Line_658" data-name="Line 658" x1="0.459" y1="3.452" transform="translate(108.935 20.378)" fill="none" stroke="#000" stroke-width="0.75"/>
      <line id="Line_659" data-name="Line 659" x1="1.335" y2="3.216" transform="translate(160.67 27.357)" fill="none" stroke="#000" stroke-width="0.75"/>
      <line id="Line_660" data-name="Line 660" x1="1.335" y2="3.216" transform="translate(82.995 214.418)" fill="none" stroke="#000" stroke-width="0.75"/>
      <line id="Line_661" data-name="Line 661" x1="3.216" y1="1.335" transform="translate(214.423 160.666)" fill="none" stroke="#000" stroke-width="0.75"/>
      <line id="Line_662" data-name="Line 662" x1="3.216" y1="1.335" transform="translate(27.362 82.991)" fill="none" stroke="#000" stroke-width="0.75"/>
      <line id="Line_663" data-name="Line 663" x1="3.218" y2="1.33" transform="translate(214.489 83.157)" fill="none" stroke="#000" stroke-width="0.75"/>
      <line id="Line_664" data-name="Line 664" x1="3.218" y2="1.33" transform="translate(27.293 160.505)" fill="none" stroke="#000" stroke-width="0.75"/>
      <line id="Line_665" data-name="Line 665" x1="1.33" y1="3.218" transform="translate(160.509 214.485)" fill="none" stroke="#000" stroke-width="0.75"/>
      <line id="Line_666" data-name="Line 666" x1="1.33" y1="3.218" transform="translate(83.161 27.288)" fill="none" stroke="#000" stroke-width="0.75"/>
      <line id="Line_667" data-name="Line 667" x1="0.236" y2="3.474" transform="translate(129.233 19.717)" fill="none" stroke="#000" stroke-width="0.75"/>
      <line id="Line_668" data-name="Line 668" x1="0.236" y2="3.474" transform="translate(115.532 221.8)" fill="none" stroke="#000" stroke-width="0.75"/>
      <line id="Line_669" data-name="Line 669" x1="3.474" y1="0.236" transform="translate(221.805 129.228)" fill="none" stroke="#000" stroke-width="0.75"/>
      <line id="Line_670" data-name="Line 670" x1="3.474" y1="0.236" transform="translate(19.722 115.527)" fill="none" stroke="#000" stroke-width="0.75"/>
      <line id="Line_671" data-name="Line 671" x1="2.623" y2="2.29" transform="translate(197.48 54.748)" fill="none" stroke="#000" stroke-width="0.75"/>
      <line id="Line_672" data-name="Line 672" x1="2.623" y2="2.29" transform="translate(44.897 187.954)" fill="none" stroke="#000" stroke-width="0.75"/>
      <line id="Line_673" data-name="Line 673" x1="2.29" y1="2.623" transform="translate(187.958 197.475)" fill="none" stroke="#000" stroke-width="0.75"/>
      <line id="Line_674" data-name="Line 674" x1="2.29" y1="2.623" transform="translate(54.752 44.893)" fill="none" stroke="#000" stroke-width="0.75"/>
      <line id="Line_675" data-name="Line 675" x1="1.935" y2="2.895" transform="translate(177.824 36.86)" fill="none" stroke="#000" stroke-width="0.75"/>
      <line id="Line_676" data-name="Line 676" x1="1.935" y2="2.895" transform="translate(65.241 205.236)" fill="none" stroke="#000" stroke-width="0.75"/>
      <line id="Line_677" data-name="Line 677" x1="2.895" y1="1.935" transform="translate(205.241 177.819)" fill="none" stroke="#000" stroke-width="0.75"/>
      <line id="Line_678" data-name="Line 678" x1="2.895" y1="1.935" transform="translate(36.865 65.237)" fill="none" stroke="#000" stroke-width="0.75"/>
      <line id="Line_679" data-name="Line 679" x1="3.416" y2="0.678" transform="translate(220.126 102.431)" fill="none" stroke="#000" stroke-width="0.75"/>
      <line id="Line_680" data-name="Line 680" x1="3.416" y2="0.678" transform="translate(21.458 141.882)" fill="none" stroke="#000" stroke-width="0.75"/>
      <line id="Line_681" data-name="Line 681" x1="0.678" y1="3.416" transform="translate(141.887 220.122)" fill="none" stroke="#000" stroke-width="0.75"/>
      <line id="Line_682" data-name="Line 682" x1="0.678" y1="3.416" transform="translate(102.435 21.454)" fill="none" stroke="#000" stroke-width="0.75"/>
      <line id="Line_683" data-name="Line 683" x1="1.127" y2="3.295" transform="translate(154.716 25.026)" fill="none" stroke="#000" stroke-width="0.75"/>
      <line id="Line_684" data-name="Line 684" x1="1.127" y2="3.295" transform="translate(89.157 216.67)" fill="none" stroke="#000" stroke-width="0.75"/>
      <line id="Line_685" data-name="Line 685" x1="3.295" y1="1.127" transform="translate(216.674 154.712)" fill="none" stroke="#000" stroke-width="0.75"/>
      <line id="Line_686" data-name="Line 686" x1="3.295" y1="1.127" transform="translate(25.031 89.153)" fill="none" stroke="#000" stroke-width="0.75"/>
      <line id="Line_687" data-name="Line 687" x1="3.127" y2="1.533" transform="translate(211.871 77.152)" fill="none" stroke="#000" stroke-width="0.75"/>
      <line id="Line_688" data-name="Line 688" x1="3.127" y2="1.533" transform="translate(30.002 166.307)" fill="none" stroke="#000" stroke-width="0.75"/>
      <line id="Line_689" data-name="Line 689" x1="1.533" y1="3.127" transform="translate(166.311 211.867)" fill="none" stroke="#000" stroke-width="0.75"/>
      <line id="Line_690" data-name="Line 690" x1="1.533" y1="3.127" transform="translate(77.156 29.997)" fill="none" stroke="#000" stroke-width="0.75"/>
      <line id="Line_691" data-name="Line 691" x1="0.69" y2="3.413" transform="translate(142.211 21.521)" fill="none" stroke="#000" stroke-width="0.75"/>
      <line id="Line_692" data-name="Line 692" x1="0.69" y2="3.413" transform="translate(102.099 220.057)" fill="none" stroke="#000" stroke-width="0.75"/>
      <line id="Line_693" data-name="Line 693" x1="3.413" y1="0.69" transform="translate(220.061 142.207)" fill="none" stroke="#000" stroke-width="0.75"/>
      <line id="Line_694" data-name="Line 694" x1="3.413" y1="0.69" transform="translate(21.526 102.095)" fill="none" stroke="#000" stroke-width="0.75"/>
      <line id="Line_695" data-name="Line 695" x1="2.902" y2="1.926" transform="translate(205.424 65.522)" fill="none" stroke="#000" stroke-width="0.75"/>
      <line id="Line_696" data-name="Line 696" x1="2.902" y2="1.926" transform="translate(36.675 177.544)" fill="none" stroke="#000" stroke-width="0.75"/>
      <line id="Line_697" data-name="Line 697" x1="1.926" y1="2.902" transform="translate(177.548 205.419)" fill="none" stroke="#000" stroke-width="0.75"/>
      <line id="Line_698" data-name="Line 698" x1="1.926" y1="2.901" transform="translate(65.526 36.67)" fill="none" stroke="#000" stroke-width="0.75"/>
      <line id="Line_699" data-name="Line 699" x1="2.299" y2="2.616" transform="translate(188.207 45.118)" fill="none" stroke="#000" stroke-width="0.75"/>
      <line id="Line_700" data-name="Line 700" x1="2.299" y2="2.616" transform="translate(54.494 197.257)" fill="none" stroke="#000" stroke-width="0.75"/>
      <line id="Line_701" data-name="Line 701" x1="2.616" y1="2.299" transform="translate(197.261 188.202)" fill="none" stroke="#000" stroke-width="0.75"/>
      <line id="Line_702" data-name="Line 702" x1="2.616" y1="2.299" transform="translate(45.123 54.49)" fill="none" stroke="#000" stroke-width="0.75"/>
      <line id="Line_703" data-name="Line 703" x1="3.475" y2="0.224" transform="translate(221.826 115.869)" fill="none" stroke="#000" stroke-width="0.75"/>
      <line id="Line_704" data-name="Line 704" x1="3.475" y2="0.224" transform="translate(19.699 128.898)" fill="none" stroke="#000" stroke-width="0.75"/>
      <line id="Line_705" data-name="Line 705" x1="0.224" y1="3.475" transform="translate(128.902 221.822)" fill="none" stroke="#000" stroke-width="0.75"/>
      <line id="Line_706" data-name="Line 706" x1="0.224" y1="3.475" transform="translate(115.873 19.694)" fill="none" stroke="#000" stroke-width="0.75"/>
      <line id="Line_707" data-name="Line 707" x1="1.55" y2="3.118" transform="translate(166.801 30.247)" fill="none" stroke="#000" stroke-width="0.75"/>
      <line id="Line_708" data-name="Line 708" x1="1.55" y2="3.118" transform="translate(76.65 211.626)" fill="none" stroke="#000" stroke-width="0.75"/>
      <line id="Line_709" data-name="Line 709" x1="3.118" y1="1.55" transform="translate(211.63 166.796)" fill="none" stroke="#000" stroke-width="0.75"/>
      <line id="Line_710" data-name="Line 710" x1="3.118" y1="1.55" transform="translate(30.252 76.646)" fill="none" stroke="#000" stroke-width="0.75"/>
      <line id="Line_711" data-name="Line 711" x1="3.301" y2="1.109" transform="translate(216.849 89.687)" fill="none" stroke="#000" stroke-width="0.75"/>
      <line id="Line_712" data-name="Line 712" x1="3.301" y2="1.109" transform="translate(24.849 154.195)" fill="none" stroke="#000" stroke-width="0.75"/>
      <line id="Line_713" data-name="Line 713" x1="1.109" y1="3.301" transform="translate(154.199 216.845)" fill="none" stroke="#000" stroke-width="0.75"/>
      <line id="Line_714" data-name="Line 714" x1="1.109" y1="3.301" transform="translate(89.691 24.845)" fill="none" stroke="#000" stroke-width="0.75"/>
      <path id="Path_198111" data-name="Path 198111" d="M187.654,159.427l-21.377,37.681,42.949.132Z" transform="translate(-64.985 -62.308)" fill="none" stroke="#000" stroke-width="0.75"/>
      <path id="Path_198112" data-name="Path 198112" d="M165.708,180.166h43.645l-22.09,37.6Z" transform="translate(-64.763 -70.413)" fill="none" stroke="#000" stroke-width="0.75"/>
      <line id="Line_715" data-name="Line 715" y2="19.253" transform="translate(122.5 0.228)" fill="none" stroke="#000" stroke-linecap="round" stroke-linejoin="round" stroke-width="0.75" stroke-dasharray="2 3 2 3 2 3"/>
      <line id="Line_716" data-name="Line 716" y2="19.262" transform="translate(122.5 225.51)" fill="none" stroke="#000" stroke-linecap="round" stroke-linejoin="round" stroke-width="0.75" stroke-dasharray="2 3 2 3 2 3"/>
      <line id="Line_717" data-name="Line 717" x1="19.257" transform="translate(225.514 122.5)" fill="none" stroke="#000" stroke-linecap="round" stroke-linejoin="round" stroke-width="0.75" stroke-dasharray="2 3 2 3 2 3"/>
      <line id="Line_718" data-name="Line 718" x1="19.257" transform="translate(0.228 122.5)" fill="none" stroke="#000" stroke-linecap="round" stroke-linejoin="round" stroke-width="0.75" stroke-dasharray="2 3 2 3 2 3"/>
    </g>
  </g>
  <text id="_1" data-name="1" transform="translate(132.024 106.206)" font-size="12" font-family="DMSans-Medium, DM Sans" font-weight="500"><tspan x="0" y="0">1</tspan></text>
  <text id="_2" data-name="2" transform="translate(142.032 126.679)" font-size="12" font-family="DMSans-Medium, DM Sans" font-weight="500"><tspan x="0" y="0">2</tspan></text>
  <text id="_3" data-name="3" transform="translate(131.139 147.993)" font-size="12" font-family="DMSans-Medium, DM Sans" font-weight="500"><tspan x="0" y="0">3</tspan></text>
  <text id="_4" data-name="4" transform="translate(105.09 148.501)" font-size="12" font-family="DMSans-Medium, DM Sans" font-weight="500"><tspan x="0" y="0">4</tspan></text>
  <text id="_5" data-name="5" transform="translate(93.384 127.797)" font-size="12" font-family="DMSans-Medium, DM Sans" font-weight="500"><tspan x="0" y="0">5</tspan></text>
  <text id="_6" data-name="6" transform="translate(105.56 106.065)" font-size="12" font-family="DMSans-Medium, DM Sans" font-weight="500"><tspan x="0" y="0">6</tspan></text>
</svg>
